<svg id="meteo-logo" xmlns="http://www.w3.org/2000/svg" viewBox="0 0 337.7 297.16"><defs><style>.cls-1{fill:#f6b53a;}.cls-1,.cls-2{fill-rule:evenodd;}.cls-2{fill:#00578a;}</style></defs><title>logo</title><path class="cls-1" d="M45,39.87s35.22-27.55,63.7-35.92a102.59,102.59,0,0,1,53.4-.83ZM183.34,15,160.49,2.27l-155,81L4.4,87.55,187.84,33.36,2.75,133.46,0,142l183.33-56.4L2.51,175.19.81,181.08l161.35-42.61L6.43,216.78l4.93,6.54L164,182.06,23.23,256.68l9.91,6.89L156.8,233.32,68.51,279.2s35.43,11.88,69.06,4.67a164.42,164.42,0,0,0,58.19-25.66l-86,14.73L264,187.33l-191,52.8,180.2-96.27-68.82,17.88-87.84,22,139.2-64.25,32.54-24.92L83.58,145.84,237.51,65.57l-6.71-11.75L93.8,93.23,210,32.58l-16.89-13.3L122,43.57Z"/><path class="cls-2" d="M118.41,47.53s23-21.28,58-31,65.77-.6,65.77-.6ZM241.62,15.64,93.8,93.23l178.6-47.31L83.58,145.84,262.4,100l-165.8,83.8,87.84-22,138.3-74.11-6-11.37L193.66,109.43,297.84,53.23l-19.05-17L194.75,58l68.5-32Zm93.32,106.51-81.69,21.71L73.05,240.13,248,195,101.93,277.34,236.44,249.8l-87.87,43.51s43.76,13.81,91-10.92c24.89-13,79.33-58.75,79.33-58.75l4.64-7.82-153.4,40L337.7,167.66l-.4-5.7L197.07,199.15,335.8,127.93Z"/></svg>